<svg width="156" height="156" viewBox="0 0 156 156" fill="none" xmlns="http://www.w3.org/2000/svg">
<path d="M78 0.5C35.2812 0.5 0.5 35.25 0.5 78C0.5 120.719 35.2812 155.5 78 155.5C120.719 155.5 155.5 120.719 155.5 78C155.5 35.25 120.719 0.5 78 0.5ZM8.3125 78C8.3125 67.9062 10.4688 58.3125 14.3438 49.6562L47.5938 140.719C24.3437 129.406 8.3125 105.562 8.3125 78ZM78 147.688C71.1562 147.688 64.5625 146.688 58.3125 144.844L79.2188 84.0938L100.625 142.781C100.781 143.125 100.938 143.438 101.125 143.75C93.9062 146.281 86.125 147.688 78 147.688ZM87.5938 45.3438C91.7812 45.125 95.5625 44.6875 95.5625 44.6875C99.3125 44.25 98.875 38.7188 95.125 38.9375C95.125 38.9375 83.8438 39.8125 76.5625 39.8125C69.7188 39.8125 58.2188 38.9375 58.2188 38.9375C54.4688 38.7188 54.0312 44.4688 57.7812 44.6875C57.7812 44.6875 61.3438 45.125 65.0938 45.3438L75.9375 75.0938L60.6875 120.812L35.3125 45.3438C39.5 45.125 43.2812 44.6875 43.2812 44.6875C47.0312 44.25 46.5938 38.7188 42.8438 38.9375C42.8438 38.9375 31.5625 39.8125 24.2812 39.8125C22.9688 39.8125 21.4375 39.7812 19.7812 39.7188C32.25 20.8125 53.6562 8.3125 78 8.3125C96.125 8.3125 112.656 15.25 125.062 26.5938C124.75 26.5625 124.469 26.5312 124.156 26.5312C117.313 26.5312 112.469 32.5 112.469 38.9062C112.469 44.6562 115.781 49.5 119.312 55.25C121.969 59.875 125.062 65.8438 125.062 74.4688C125.062 80.4375 122.781 87.3438 119.75 97L112.812 120.219L87.5938 45.3438ZM113.031 138.219L134.312 76.6875C138.281 66.75 139.625 58.8125 139.625 51.7188C139.625 49.1562 139.469 46.7812 139.156 44.5625C144.594 54.5 147.688 65.875 147.688 78C147.688 103.719 133.75 126.156 113.031 138.219Z" fill="#222222"/>
</svg>
