<svg width="110" height="160" viewBox="0 0 110 160" fill="none" xmlns="http://www.w3.org/2000/svg">
<path d="M27.5641 160C42.7087 160 55 148.053 55 133.333V106.667H27.5641C12.4195 106.667 0.128189 118.613 0.128189 133.333C0.128189 148.053 12.4195 160 27.5641 160Z" fill="#0ACF83"/>
<path d="M0.128189 79.9999C0.128189 65.2799 12.4195 53.3333 27.5641 53.3333H55V106.667H27.5641C12.4195 106.667 0.128189 94.7199 0.128189 79.9999Z" fill="#A259FF"/>
<path d="M0.128189 26.6667C0.128189 11.9467 12.4195 0 27.5641 0H55V53.3333H27.5641C12.4195 53.3333 0.128189 41.3867 0.128189 26.6667Z" fill="#F24E1E"/>
<path d="M55 0H82.4359C97.5805 0 109.872 11.9467 109.872 26.6667C109.872 41.3867 97.5805 53.3333 82.4359 53.3333H55V0Z" fill="#FF7262"/>
<path d="M109.872 79.9999C109.872 94.7199 97.5805 106.667 82.4359 106.667C67.2913 106.667 55 94.7199 55 79.9999C55 65.2799 67.2913 53.3333 82.4359 53.3333C97.5805 53.3333 109.872 65.2799 109.872 79.9999Z" fill="#1ABCFE"/>
</svg>
